<svg xmlns="http://www.w3.org/2000/svg" viewBox="0 0 1024 1024" xml:space="preserve"><path fill="#020202" d="M192.939 342.427c-8.037-.089-16.074-.178-24.658-.577-.659-.849-.77-1.386-.88-1.924 8.836-14.749 17.672-29.497 26.86-44.706 7.56-13.014 14.77-25.567 22.221-38.353 3.652-6.001 7.062-11.77 10.936-17.457 93.712.092 186.96.126 280.209.09 12.785-.005 25.57-.356 38.803-.392 5.827.048 11.208-.058 16.939.04 10.772.07 21.193-.061 32.062-.039 8.827.05 17.205-.054 25.936.042 7.467.199 14.58.197 22.113.393 4.12.282 7.82.366 11.857.644 2.455.299 4.576.405 7.107.672 14.392 2.087 28.374 4.012 42.611 6.195 2.2.667 4.17.986 6.085 1.504 11.618 3.144 23.225 6.333 35.03 9.711 8.387 3.442 16.579 6.678 24.955 10.206 10.376 6.139 21.204 11.124 30.593 18.058 10.999 8.124 20.745 17.944 31.107 27.344 2.043 2.612 4.014 4.91 6.035 7.552 14.305 19.266 22.696 40.834 28.528 63.977 1.415 11.572 3.375 22.665 4.192 33.842.745 10.191.25 20.473.103 31.076-1.429 21.407-4.919 42.096-10.249 62.816-1.412 4.235-2.26 8.321-3.822 12.115-6.89 16.745-13.986 33.405-21.293 50.314-2.042 3.59-3.8 6.964-5.8 10.563-13.314 18.985-26.383 37.744-39.742 56.609-8.216 8.776-16.142 17.447-24.374 26.226-3.068 2.738-5.734 5.479-8.608 7.98a2474 2474 0 0 1-32.64 27.931c-7.027 5.11-13.728 10.184-20.787 15.354-1.89 1.07-3.397 2.088-4.962 3.01-19.787 11.657-39.582 23.3-59.736 34.937-8.24 3.885-16.12 7.78-24.297 11.644-.645.14-.993.312-1.658.48-1.03.422-1.743.848-2.797 1.34-3.185 1.312-6.03 2.558-9.19 3.795-.994.42-1.671.849-2.708 1.28-5.902 2.2-11.444 4.398-17.366 6.604-3.784 1.304-7.188 2.6-10.955 3.902-9.792 3.102-19.22 6.2-28.955 9.211-1.025.33-1.745.746-2.833 1.107-7.852 1.964-15.335 3.983-23.094 5.886-.767.21-1.256.533-2.09.835-.768.135-1.193.292-1.952.347-1.806.439-3.278.978-5.134 1.486-1.12.171-1.855.375-2.894.452-1.018.281-1.732.689-2.662 1.023-.538-.08-.812.034-1.223.141-.734.048-1.281.221-2.17.338-.78.079-1.218.214-1.973.26-1.08.289-1.841.668-2.997.987-1.153.136-1.913.333-2.932.431-.745.1-1.232.3-2.124.506-2.809.496-5.212.984-7.909 1.344-1.03.242-1.767.613-2.768.86-.813.018-1.362.16-2.22.187-2.79.4-5.27.915-8.13 1.384-1.119.12-1.858.288-2.915.35-1.09.231-1.863.57-3.041.81-1.482.124-2.556.345-3.952.43-1.378.227-2.434.591-3.76.833-.817.038-1.364.199-2.105.222-.748.042-1.302.222-2.286.378-2.11.224-3.79.472-5.811.59-1.454.153-2.567.435-4.112.665-2.138.165-3.844.382-5.811.478-.765.1-1.267.319-2.16.469-2.486.197-4.582.464-6.995.593-4.097.34-7.878.818-12.073 1.254-1.786.121-3.157.286-4.936.307-2.805.211-5.203.566-8.004.863-1.463.054-2.524.167-4.006.158-3.165.141-5.908.405-8.96.603-.92.071-1.532.21-2.499.204-19.564.17-38.772.486-57.98.796-7.434.12-14.869.228-22.743.227-3.48-.053-6.52.008-9.903-.138-18.098-.278-35.855-.318-53.611-.47-1.802-.016-4.81 1.208-4.142-3.024 3.665-10.482 7.105-20.654 10.798-31.02.46-1 .667-1.806 1.115-2.858.386-1.133.53-2.02.946-3.158 1.178-3.029 2.084-5.808 3.247-8.84.533-1.41.81-2.566 1.38-3.945.525-1.418.757-2.613 1.17-3.929.18-.12.151-.552.396-.79 1.078-2.843 1.91-5.448 2.883-8.186.14-.135.145-.522.369-.76a400 400 0 0 0 4.907-13.786c4.287-12.786 8.54-25.583 13.104-38.583a654 654 0 0 0 7.877-21.824c4.661-13.646 9.257-27.315 14.184-41.19.717-1.471 1.117-2.733 1.544-3.985 6.916-20.27 13.834-40.538 20.956-61.057.647-1.696 1.09-3.142 1.738-4.848 2.01-5.38 3.867-10.483 5.613-15.624 4.876-14.357 9.706-28.73 14.81-43.32a321 321 0 0 0 5.077-13.755c5.725-16.707 11.415-33.426 17.303-50.45 4.119-11.927 8.052-23.544 12.28-35.334.565-1.251.837-2.329 1.305-3.732 1.117-3.447 2.038-6.568 3.191-9.87.387-.72.543-1.258.902-2.08.472-.923.742-1.563 1.485-2.218 41.2-.02 81.927-.001 122.654-.054 5.29-.006 10.579-.376 16.216-.434.829.034 1.309-.076 2.102.03.654 1.757.994 3.297 1.421 4.876.088.037-.054-.091-.322.085-.344.794-.419 1.412-.685 2.342-4.84 13.723-9.488 27.135-14.435 40.753-.697 2.104-1.097 4-1.777 6.123-1.529 4.172-2.776 8.119-4.256 12.274-.456.999-.678 1.79-1.105 2.83-.29.886-.376 1.52-.741 2.357-.776 1.937-1.273 3.673-2.024 5.687-.816 2.151-1.377 4.023-2.171 6.135-.64 1.688-1.046 3.136-1.676 4.907-.977 2.768-1.73 5.214-2.69 7.85-.318.731-.427 1.272-.762 2.073-.417 1.152-.607 2.043-1.011 3.19.292.982.796 2.336 1.304 2.337 6.196.022 12.393-.154 19.043-.168 21.44.028 42.426-.056 63.858.032 45.486.197 90.526.201 135.566.293 3.02.006 4.96-.468 4.482-4.382.284-1.101.339-1.879.564-2.95.202-2.103.232-3.914.419-5.976.1-.827.043-1.401.218-2.243.334-2.339.436-4.41.69-6.878.108-2.086.064-3.774.186-5.813.048-3.18-.071-6.009-.085-9.193-.01-1.07-.126-1.787-.136-2.835-.159-2.078-.424-3.824-.615-5.927-.068-.814-.21-1.272-.17-1.967 0-.772-.18-1.307-.283-2.168.006-.764-.065-1.201.002-1.865-.01-1.07-.16-1.913-.274-3.136-.167-1.105-.37-1.83-.433-2.817-.115-.775-.368-1.287-.577-2.23-.22-2.122-.484-3.815-.637-5.793-.24-.976-.59-1.666-.917-2.754-1.294-5.255-2.612-10.11-3.86-15.256-.37-.94-.81-1.587-1.242-2.598-.999-2.552-2.004-4.743-2.946-7.271-3.454-6.288-6.973-12.238-10.602-18.536-5.578-6.129-10.586-12.451-16.612-17.576-11.357-9.657-24.45-16.324-39.374-19.957-10.403-1.868-20.515-3.493-30.836-5.457-10.063-.547-19.917-.754-30.012-1.082-.406-.05-.572.021-1.024-.092-1.16-.06-2.032.064-3.351.053-19.779-.038-39.11.06-58.803-.026-1.147-.074-1.934.036-3.037.007-.757-.04-1.197.06-2.08-.012-9.831-.037-19.22.096-29.045.072-4.123-.055-7.813.05-11.941-.028-6.497-.065-12.556.05-18.948.016-.787-.024-1.241.102-2.129.051a764 764 0 0 0-23.78-.252c-13.23.075-26.46.235-40.045.18-1.126-.076-1.898.027-3.085-.041-6.707-.172-13-.213-19.29-.166-12.401.092-24.801.233-37.588.212-1.459-.02-2.53.102-3.985.054-20.821-.074-41.258.02-62.13-.078-17.721-.209-35.008-.25-52.296-.218-4.46.008-8.918.241-13.377.37m247.518 404.058c.516-.157 1.032-.313 2.341-.386 2.06-.462 4.118-.923 6.973-1.207 4.339-1.01 8.773-1.724 13-3.083 17.558-5.646 35.053-11.486 53.193-17.343 2.714-1.18 5.497-2.223 8.13-3.563 10.066-5.126 20.083-10.348 30.853-15.522 7.682-4.8 15.364-9.6 23.73-14.485 2.698-1.907 5.41-3.796 8.093-5.724 17.607-12.657 34.366-26.305 49.881-42.337 2.12-2.277 4.24-4.553 6.976-7.088 16.504-17.837 31.56-36.744 44.04-58.231-16.181 0-31.407 0-47.52-.332-8.3-.032-16.6-.118-24.9-.084-14.092.057-28.184.19-43.183.055-19.678.095-39.356.19-59.878-.036-2.393.088-4.787.176-8.078-.025-9.371.087-18.742.174-28.982-.016-.998-.016-2.02.1-2.99-.07-5.473-.954-7.95 1.115-9.758 6.68-7.33 22.558-15.394 44.877-23.128 67.304-5.512 15.98-10.93 31.992-16.878 48.53l-18.262 51.915c10.546-1.403 20.196-2.688 30.482-3.805.788-.256 1.575-.511 3.143-.688.739-.235 1.478-.47 2.722-.46"/></svg>