<?xml version="1.0" encoding="UTF-8"?>
<svg width="64px" height="64px" viewBox="0 0 64 64" version="1.1" xmlns="http://www.w3.org/2000/svg" xmlns:xlink="http://www.w3.org/1999/xlink">
    <title>measure_frequency</title>
    <g id="measure_frequency" stroke="none" stroke-width="1" fill="none" fill-rule="evenodd">
        <path d="M29.1100279,12.3457789 C29.7715722,10.4346508 32.5274315,10.6006242 32.9548283,12.5773344 L39.411,42.44 L46.1026334,22.3675445 C46.6351844,20.7698915 48.7597849,20.5224901 49.6622464,21.8868916 L49.7483146,22.0287141 L54.177,30 L56,30 C57.0543618,30 57.9181651,30.8158778 57.9945143,31.8507377 L58,32 C58,33.1045695 57.1045695,34 56,34 L53,34 C52.2736657,34 51.6044245,33.6062162 51.2516854,32.9712859 L48.459,27.946 L40.8973666,50.6324555 C40.2718775,52.5089228 37.6278593,52.4180003 37.0863423,50.5841187 L37.0451717,50.4226656 L30.554,20.4 L23.8899721,39.6542211 C23.2957637,41.3708233 20.9344127,41.4527517 20.192088,39.8567857 L20.1273416,39.7022469 L15.646,27.754 L12.7483146,32.9712859 C12.4227092,33.5573754 11.8274216,33.937991 11.166484,33.9930792 L11,34 L8,34 C6.8954305,34 6,33.1045695 6,32 C6,30.8954305 6.8954305,30 8,30 L9.822,30 L14.2516854,22.0287141 C15.0531043,20.5861601 17.1337791,20.6922999 17.8098343,22.1477208 L17.8726584,22.2977531 L21.924,33.103 L29.1100279,12.3457789 Z" id="Path-105" fill="#000000" fill-rule="nonzero"></path>
    </g>
</svg>